<svg version="1.1" xmlns="http://www.w3.org/2000/svg" xmlns:xlink="http://www.w3.org/1999/xlink" x="0px" y="0px" width="8.113px" height="14.445px" viewBox="0 0 8.113 14.445" enable-background="new 0 0 8.113 14.445" xml:space="preserve">
                  <path fill="#ffffff" d="M7.525,2.794C7.033,2.506,6.643,2.278,6.15,2.278c-0.479,0-0.891,0.121-1.101,0.322
                    C4.84,2.803,4.736,3.19,4.736,3.765v0.85h2.569L6.75,6.976H4.736v7.47H1.508v-7.47H0V4.614h1.508V3.712
                    c0-0.949,0.113-1.518,0.338-1.986c0.223-0.468,0.658-0.989,1.26-1.283C3.708,0.149,4.601,0,5.523,0c0.946,0,1.685,0.315,2.59,0.571
                    L7.525,2.794z"></path>
                  </svg>