<svg version="1.1" xmlns="http://www.w3.org/2000/svg" xmlns:xlink="http://www.w3.org/1999/xlink" x="0px" y="0px" width="13.741px" height="11.168px" viewBox="0 0 13.741 11.168" enable-background="new 0 0 13.741 11.168" xml:space="preserve">
<path fill="#ffffff" d="M13.741,1.323c-0.505,0.224-1.049,0.375-1.619,0.441c0.582-0.348,1.029-0.899,1.239-1.558
c-0.544,0.322-1.147,0.558-1.79,0.683C11.058,0.343,10.324,0,9.514,0C7.957,0,6.694,1.263,6.694,2.82
c0,0.221,0.025,0.436,0.073,0.641C4.425,3.346,2.347,2.222,0.956,0.517c-0.242,0.416-0.381,0.9-0.381,1.417
c0,0.979,0.497,1.842,1.254,2.347C1.367,4.266,0.933,4.139,0.552,3.929c0,0.01,0,0.023,0,0.035c0,1.365,0.972,2.505,2.262,2.765
C2.577,6.792,2.327,6.827,2.071,6.827c-0.183,0-0.359-0.018-0.531-0.051c0.358,1.12,1.4,1.935,2.634,1.957
C3.209,9.49,1.993,9.94,0.672,9.94C0.445,9.94,0.22,9.928,0,9.901c1.247,0.8,2.729,1.267,4.321,1.267
c5.187,0,8.021-4.296,8.021-8.021c0-0.122-0.003-0.244-0.008-0.365C12.886,2.384,13.364,1.889,13.741,1.323z"></path>
</svg>